<svg xmlns="http://www.w3.org/2000/svg" xmlns:xlink="http://www.w3.org/1999/xlink" width="256" height="256" viewBox="0 0 256 256">
  <defs>
    <clipPath id="clip-logo-light">
      <rect width="256" height="256"/>
    </clipPath>
  </defs>
  <g id="logo-light" clip-path="url(#clip-logo-light)">
    <rect width="256" height="256" fill="rgba(255,255,255,0)"/>
    <g id="Groupe_1" data-name="Groupe 1" transform="translate(-152.949 -305.651)">
      <path id="Tracé_1" data-name="Tracé 1" d="M163.4,174.5H134.391a2.5,2.5,0,0,1-.756-.117l-24.192-.1a2.5,2.5,0,0,1-2.49-2.491l-.177-49.021-13.453-8.531L76.994,124.572v47.214a2.5,2.5,0,0,1-2.5,2.5H50.822a2.5,2.5,0,0,1-2.5-2.5V92.633a2.5,2.5,0,0,1,1.084-2.06L79,70.227a2.5,2.5,0,0,1,2.775-.038L110.519,88.8a2.5,2.5,0,0,1,1.141,2.089l.284,78.4,19.956.078.344-96.745L82.063,39.505,28.608,73.656V172a2.5,2.5,0,0,1-2.5,2.5H-4.5A2.5,2.5,0,0,1-7,172V52.284a2.5,2.5,0,0,1,1.128-2.09L82.484-7.786a2.5,2.5,0,0,1,2.749,0l79.513,52.5a2.5,2.5,0,0,1,1.154,2.107V172s0,0,0,0A2.5,2.5,0,0,1,163.4,174.5ZM-2,169.5h25.61V72.287a2.5,2.5,0,0,1,1.154-2.107L80.74,34.418a2.5,2.5,0,0,1,2.723.02L136.127,69.2a2.5,2.5,0,0,1,1.123,2.1l-.349,98.1,24,.094V48.174L83.851-2.7-2,53.634Zm55.324-.212H71.994V123.2a2.5,2.5,0,0,1,1.163-2.113l18.83-11.912a2.5,2.5,0,0,1,2.675,0l12.091,7.668-.089-24.576L80.454,75.292,53.322,93.948Z" transform="translate(201.5 350.5)" fill="#fff"/>
      <path id="Tracé_2" data-name="Tracé 2" d="M0-2.2,5.017,1.113,5,102a4.6,4.6,0,0,1-2.453.973A5.084,5.084,0,0,1,0,102Z" transform="translate(345.992 384)" fill="#070f37"/>
    </g>
  </g>
</svg>
